<svg width="24" height="24" viewBox="0 0 24 24" fill="#959BA5" xmlns="http://www.w3.org/2000/svg">
<g id="icon/home">
<path id="Subtract" fill-rule="evenodd" clip-rule="evenodd" d="M4.33327 8.28407C4 9.00868 4 9.83303 4 11.4817V16.6308C4 18.9205 4 20.0653 4.71131 20.7766C5.38072 21.446 6.43408 21.4855 8.46425 21.4878V15.4166C8.46425 14.1937 9.45562 13.2023 10.6785 13.2023H14.3214C15.5443 13.2023 16.5357 14.1937 16.5357 15.4166V21.4878C18.5659 21.4855 19.6193 21.446 20.2887 20.7766C21 20.0653 21 18.9205 21 16.6308V11.4817C21 9.83303 21 9.00868 20.6667 8.28407C20.3335 7.55946 19.7076 7.02297 18.4558 5.95001L17.2415 4.90919C14.9789 2.96982 13.8476 2.00014 12.5 2.00014C11.1524 2.00014 10.0211 2.96982 7.75852 4.90919L6.54423 5.95001C5.29244 7.02297 4.66655 7.55946 4.33327 8.28407ZM14.5357 21.4879V15.4166C14.5357 15.2982 14.4397 15.2023 14.3214 15.2023H10.6785C10.5602 15.2023 10.4642 15.2982 10.4642 15.4166V21.4879H14.5357Z" fill="#959BA5"/>
</g>
</svg>
