<svg width="20" height="20" viewBox="0 0 20 20" fill="none" xmlns="http://www.w3.org/2000/svg">
<g id="icon/search">
<path id="Subtract" d="M15.25 8.95832C15.25 12.4331 12.4331 15.25 8.95834 15.25V17.25C13.5377 17.25 17.25 13.5377 17.25 8.95832H15.25ZM8.95834 15.25C5.48355 15.25 2.66667 12.4331 2.66667 8.95832H0.666672C0.666672 13.5377 4.37898 17.25 8.95834 17.25V15.25ZM2.66667 8.95832C2.66667 5.48353 5.48355 2.66666 8.95834 2.66666V0.666656C4.37898 0.666656 0.666672 4.37896 0.666672 8.95832H2.66667ZM8.95834 2.66666C12.4331 2.66666 15.25 5.48353 15.25 8.95832H17.25C17.25 4.37896 13.5377 0.666656 8.95834 0.666656V2.66666Z" fill="#959BA5"/>
<path id="Vector 109" d="M18.3333 18.3333L15 15" stroke="#959BA5" stroke-width="2" stroke-linecap="round"/>
</g>
</svg>
